<svg width="52" height="52" viewBox="0 0 52 52" fill="none" xmlns="http://www.w3.org/2000/svg">
<path d="M26.1407 51.8031C40.3567 51.8031 51.8811 40.2787 51.8811 26.0627C51.8811 11.8466 40.3567 0.322266 26.1407 0.322266C11.9246 0.322266 0.400299 11.8466 0.400299 26.0627C0.400299 40.2787 11.9246 51.8031 26.1407 51.8031Z" fill="#FFCD1D"/>
<path d="M26.1406 9.84473V42.2804" stroke="white" stroke-width="2.41257" stroke-linecap="round" stroke-linejoin="round"/>
<path d="M33.5124 15.7422H22.4548C21.0862 15.7422 19.7737 16.2858 18.8059 17.2536C17.8382 18.2213 17.2946 19.5338 17.2946 20.9023C17.2946 22.2709 17.8382 23.5834 18.8059 24.5512C19.7737 25.5189 21.0862 26.0626 22.4548 26.0626H29.8265C31.195 26.0626 32.5076 26.6062 33.4753 27.574C34.4431 28.5417 34.9867 29.8542 34.9867 31.2228C34.9867 32.5914 34.4431 33.9039 33.4753 34.8716C32.5076 35.8393 31.195 36.383 29.8265 36.383H17.2946" stroke="white" stroke-width="2.41257" stroke-linecap="round" stroke-linejoin="round"/>
</svg>
