<svg width="52" height="52" viewBox="0 0 52 52" fill="none" xmlns="http://www.w3.org/2000/svg">
<path d="M25.7404 51.4808C39.9564 51.4808 51.4808 39.9564 51.4808 25.7404C51.4808 11.5243 39.9564 0 25.7404 0C11.5243 0 0 11.5243 0 25.7404C0 39.9564 11.5243 51.4808 25.7404 51.4808Z" fill="#5CC97B"/>
<path fill-rule="evenodd" clip-rule="evenodd" d="M28.8976 32.0292C27.0546 33.2479 24.8249 33.9189 22.4491 33.8208C16.4399 33.5726 11.7695 28.4995 12.0177 22.4901C12.2659 16.4807 17.3387 11.8111 23.3478 12.0593C29.356 12.3073 34.0275 17.3794 33.7793 23.3889C33.6918 25.5072 33.0047 27.4592 31.8884 29.088L39.225 36.2115C40.1302 37.1929 40.0978 38.7099 39.1677 39.6499L39.125 39.6893L39.0798 39.7284C38.0688 40.5779 36.5542 40.4868 35.6499 39.5046L28.8976 32.0292ZM22.5528 31.309C17.9306 31.1181 14.3378 27.2157 14.5287 22.5935C14.7196 17.9713 18.6219 14.3785 23.2442 14.5694C27.8664 14.7603 31.4593 18.6626 31.2684 23.2848C31.0774 27.9071 27.175 31.4999 22.5528 31.309Z" fill="white"/>
</svg>
