<svg width="52" height="52" viewBox="0 0 52 52" fill="none" xmlns="http://www.w3.org/2000/svg">
<path d="M25.797 51.5374C40.013 51.5374 51.5374 40.0131 51.5374 25.797C51.5374 11.581 40.013 0.0566406 25.797 0.0566406C11.5809 0.0566406 0.0565796 11.581 0.0565796 25.797C0.0565796 40.0131 11.5809 51.5374 25.797 51.5374Z" fill="#1B76FF"/>
<path fill-rule="evenodd" clip-rule="evenodd" d="M12.387 20.7031H17.0328V38.8643H12.387C11.6875 38.8643 11.1204 38.3242 11.1204 37.658V21.9094C11.1204 21.2432 11.6875 20.7031 12.387 20.7031Z" stroke="white" stroke-width="1.60838" stroke-linecap="round" stroke-linejoin="round"/>
<path fill-rule="evenodd" clip-rule="evenodd" d="M39.0609 35.4639C38.7668 37.7274 37.2545 38.8641 34.566 38.8641H20.4984C18.5871 38.8641 17.0328 37.4012 17.0328 35.6023V20.7248C21.4941 20.2899 23.7247 18.7325 23.7247 14.5446V12.5378C23.7247 10.4225 25.5252 8.70776 27.7462 8.70776C28.5926 8.70776 29.4173 8.96205 30.1032 9.43451C31.0483 10.0869 31.6506 11.3224 31.6506 13.1015V18.9108C31.6506 19.4049 32.4871 19.8102 33.3236 19.8102H37.8111C39.7015 19.8102 41.2347 21.2335 41.2767 23.0028C41.3048 24.1823 40.5661 27.8334 39.0609 35.4639Z" stroke="white" stroke-width="1.60838" stroke-linecap="round" stroke-linejoin="round"/>
</svg>
